<svg width="100%" height="100%" viewBox="0 0 1751 1521" fill="none" xmlns="http://www.w3.org/2000/svg">
<path fill-rule="evenodd" clip-rule="evenodd" d="M1371.72 0.144776C1458.61 4.28151 1497.19 106.633 1555.2 171.437C1607.74 230.115 1689.7 276.157 1689.35 354.916C1688.99 433.556 1617.99 491.655 1553.56 536.756C1500.68 573.779 1436.19 573.879 1371.72 577.277C1301.45 580.981 1223.62 602.152 1169.65 556.989C1113.35 509.874 1105.96 428.331 1106 354.916C1106.05 281.558 1125.92 211.806 1169.9 153.091C1222.5 82.8571 1284.07 -4.02858 1371.72 0.144776Z" fill="#EB64EE"/>
<path fill-rule="evenodd" clip-rule="evenodd" d="M1186.13 807.801C1264.76 806.803 1354.01 745.937 1412.87 798.092C1471.87 850.366 1431.43 946.011 1431.07 1024.83C1430.71 1103 1468.47 1196.74 1410.81 1249.51C1353.37 1302.07 1263.98 1249.54 1186.13 1249C1109.36 1248.45 1025.65 1292.91 964.592 1246.37C900.341 1197.4 891.914 1105.62 892.001 1024.83C892.088 944.155 900.151 851.676 965.069 803.774C1026.72 758.285 1109.52 808.773 1186.13 807.801Z" fill="#FD5656"/>
<path fill-rule="evenodd" clip-rule="evenodd" d="M412.233 859.144C497.167 879.287 502.279 998.062 562.173 1061.56C618.315 1121.08 729.348 1131.11 744.58 1211.5C760.516 1295.61 695.025 1373.31 632.273 1431.54C572.043 1487.43 494.351 1517.1 412.233 1519.9C326.847 1522.8 240.486 1503.87 176.692 1447.04C109.356 1387.06 67.4752 1301.67 66.0382 1211.5C64.58 1120 104.926 1033.61 169.063 968.332C233.798 902.444 322.357 837.829 412.233 859.144Z" fill="#68A2E6"/>
<path fill-rule="evenodd" clip-rule="evenodd" d="M502.87 181.051C583.86 181.81 680.472 153.307 734.291 213.833C787.584 273.768 733.219 365.183 737.797 445.254C742.953 535.428 829.384 644.199 762.361 704.745C694.538 766.013 594.124 662.624 502.87 657.476C422.398 652.936 340.472 718.056 271.096 677.029C192.254 630.404 144.798 536.847 144.009 445.254C143.216 353.089 192.847 264.098 267.069 209.453C333.345 160.659 420.573 180.279 502.87 181.051Z" fill="#5AE0E0"/>
<rect x="0.5" y="175.5" width="1750" height="1307"/>
</svg>
